{"asset":{"generator":"Khronos glTF Spline I/O v0.0.1","version":"2.0"},"scenes":[{"nodes":[0]}],"nodes":[{"name":"","children":[1,2,3,4,5,6]},{"name":"Ellipse 3","matrix":[1.1102230246251565e-16,0,-0.5,0,0,0.5,0,0,0.5,0,1.1102230246251565e-16,0,16.17988703525733,7.113137582096897,23.7778023099454,1],"mesh":0},{"name":"Ellipse 3","matrix":[1.1102230246251565e-16,0,-0.5,0,0,0.5,0,0,0.5,0,1.1102230246251565e-16,0,16.179887035257337,7.113137582096897,-14.629926689514832,1],"mesh":1},{"name":"Ellipse 2","matrix":[1.1102230246251565e-16,0,-0.5,0,0,0.5,0,0,0.5,0,1.1102230246251565e-16,0,-18.348331609050014,7.113137582096897,23.7778023099454,1],"mesh":2},{"name":"Ellipse","matrix":[1.1102230246251565e-16,0,-0.5,0,0,0.5,0,0,0.5,0,1.1102230246251565e-16,0,-18.348331609050007,7.113137582096897,-14.629926689514832,1],"mesh":3},{"name":"Cube","matrix":[1,0,0,0,0,1,0,0,0,0,1,0,1,22.113137582096897,0,1],"mesh":4},{"name":"Personal Camera","camera":0,"translation":[277.8602772736177,400.76447155021333,129.26037962993638],"rotation":[-0.2873346241551088,0.42996973611680384,0.1465076928889871,0.843267653660233]}],"cameras":[{"type":"perspective","perspective":{"aspectRatio":1.9793814432989691,"yfov":0.7853981633974483,"znear":5,"zfar":100000}}],"meshes":[{"primitives":[{"attributes":{"POSITION":1,"NORMAL":2,"TEXCOORD_0":3},"indices":0}]},{"primitives":[{"attributes":{"POSITION":5,"NORMAL":6,"TEXCOORD_0":7},"indices":4}]},{"primitives":[{"attributes":{"POSITION":9,"NORMAL":10,"TEXCOORD_0":11},"indices":8}]},{"primitives":[{"attributes":{"POSITION":13,"NORMAL":14,"TEXCOORD_0":15},"indices":12}]},{"primitives":[{"attributes":{"POSITION":17,"NORMAL":18,"FACEMAP":19,"COLOR":20},"indices":16}]}],"buffers":[{"uri":"data:application/octet-stream;base64,","byteLength":6864},{"uri":"data:application/octet-stream;base64,","byteLength":6864},{"uri":"data:application/octet-stream;base64,","byteLength":6864},{"uri":"data:application/octet-stream;base64,","byteLength":6864},{"uri":"data:application/octet-stream;base64,","byteLength":1152}],"bufferViews":[{"buffer":0,"byteOffset":0,"byteLength":720,"target":34963},{"buffer":0,"byteOffset":720,"byteLength":2048,"target":34962},{"buffer":0,"byteOffset":2768,"byteLength":2048,"target":34962},{"buffer":0,"byteOffset":4816,"byteLength":2048,"target":34962},{"buffer":1,"byteOffset":0,"byteLength":720,"target":34963},{"buffer":1,"byteOffset":720,"byteLength":2048,"target":34962},{"buffer":1,"byteOffset":2768,"byteLength":2048,"target":34962},{"buffer":1,"byteOffset":4816,"byteLength":2048,"target":34962},{"buffer":2,"byteOffset":0,"byteLength":720,"target":34963},{"buffer":2,"byteOffset":720,"byteLength":2048,"target":34962},{"buffer":2,"byteOffset":2768,"byteLength":2048,"target":34962},{"buffer":2,"byteOffset":4816,"byteLength":2048,"target":34962},{"buffer":3,"byteOffset":0,"byteLength":720,"target":34963},{"buffer":3,"byteOffset":720,"byteLength":2048,"target":34962},{"buffer":3,"byteOffset":2768,"byteLength":2048,"target":34962},{"buffer":3,"byteOffset":4816,"byteLength":2048,"target":34962},{"buffer":4,"byteOffset":0,"byteLength":144,"target":34963},{"buffer":4,"byteOffset":144,"byteLength":288,"target":34962},{"buffer":4,"byteOffset":432,"byteLength":288,"target":34962},{"buffer":4,"byteOffset":720,"byteLength":48,"target":34962},{"buffer":4,"byteOffset":768,"byteLength":384,"target":34962}],"accessors":[{"bufferView":0,"byteOffset":0,"componentType":5125,"count":180,"type":"SCALAR","min":[0],"max":[63]},{"bufferView":1,"byteOffset":0,"componentType":5126,"count":64,"type":"VEC3","min":[-16,-16,0],"max":[16,16,8]},{"bufferView":2,"byteOffset":0,"componentType":5126,"count":64,"type":"VEC3","min":[-0.9802226424217224,-0.9802226424217224,-1],"max":[0.9802226424217224,0.9802226424217224,1]},{"bufferView":3,"byteOffset":0,"componentType":5126,"count":64,"type":"VEC2","min":[0,0],"max":[1,1]},{"bufferView":4,"byteOffset":0,"componentType":5125,"count":180,"type":"SCALAR","min":[0],"max":[63]},{"bufferView":5,"byteOffset":0,"componentType":5126,"count":64,"type":"VEC3","min":[-16,-16,0],"max":[16,16,8]},{"bufferView":6,"byteOffset":0,"componentType":5126,"count":64,"type":"VEC3","min":[-0.9802226424217224,-0.9802226424217224,-1],"max":[0.9802226424217224,0.9802226424217224,1]},{"bufferView":7,"byteOffset":0,"componentType":5126,"count":64,"type":"VEC2","min":[0,0],"max":[1,1]},{"bufferView":8,"byteOffset":0,"componentType":5125,"count":180,"type":"SCALAR","min":[0],"max":[63]},{"bufferView":9,"byteOffset":0,"componentType":5126,"count":64,"type":"VEC3","min":[-16,-16,0],"max":[16,16,8]},{"bufferView":10,"byteOffset":0,"componentType":5126,"count":64,"type":"VEC3","min":[-0.9802226424217224,-0.9802226424217224,-1],"max":[0.9802226424217224,0.9802226424217224,1]},{"bufferView":11,"byteOffset":0,"componentType":5126,"count":64,"type":"VEC2","min":[0,0],"max":[1,1]},{"bufferView":12,"byteOffset":0,"componentType":5125,"count":180,"type":"SCALAR","min":[0],"max":[63]},{"bufferView":13,"byteOffset":0,"componentType":5126,"count":64,"type":"VEC3","min":[-16,-16,0],"max":[16,16,8]},{"bufferView":14,"byteOffset":0,"componentType":5126,"count":64,"type":"VEC3","min":[-0.9802226424217224,-0.9802226424217224,-1],"max":[0.9802226424217224,0.9802226424217224,1]},{"bufferView":15,"byteOffset":0,"componentType":5126,"count":64,"type":"VEC2","min":[0,0],"max":[1,1]},{"bufferView":16,"byteOffset":0,"componentType":5125,"count":36,"type":"SCALAR","min":[0],"max":[23]},{"bufferView":17,"byteOffset":0,"componentType":5126,"count":24,"type":"VEC3","min":[-16,-16,-28.33956527709961],"max":[16,16,34.33045196533203]},{"bufferView":18,"byteOffset":0,"componentType":5126,"count":24,"type":"VEC3","min":[-1,-1,-1],"max":[1,1,1]},{"bufferView":19,"byteOffset":0,"componentType":5125,"count":12,"type":"SCALAR","min":[0],"max":[11]},{"bufferView":20,"byteOffset":0,"componentType":5126,"count":24,"type":"VEC4","min":[0,0,0,0],"max":[0.9882352948188782,0.729411780834198,0.0117647061124444,0]}],"extensions":{"KHR_lights_punctual":{"lights":[]}},"extensionsUsed":["KHR_lights_punctual"]}